<?xml version="1.0" encoding="utf-8"?>
<!-- Generator: Adobe Illustrator 16.0.0, SVG Export Plug-In . SVG Version: 6.00 Build 0)  -->
<!DOCTYPE svg PUBLIC "-//W3C//DTD SVG 1.1//EN" "http://www.w3.org/Graphics/SVG/1.1/DTD/svg11.dtd">
<svg version="1.1" xmlns="http://www.w3.org/2000/svg" xmlns:xlink="http://www.w3.org/1999/xlink" x="0px" y="0px" width="864px"
	 height="612px" viewBox="0 0 864 612" enable-background="new 0 0 864 612" xml:space="preserve">
<g id="Layer_1">
</g>
<g id="Layer_3">
	<rect x="288.451" y="69.432" fill="#AEF4F4" width="306.869" height="9.55"/>
	<rect x="289.405" y="532.182" fill="#AEF4F4" width="306.87" height="9.551"/>
	<rect x="430.248" y="291.808" fill="#AEF4F4" width="26.607" height="9.55"/>
	<rect x="430.248" y="309.949" fill="#AEF4F4" width="26.607" height="9.551"/>
	
		<rect x="438.509" y="301.328" transform="matrix(0.0203 -0.9998 0.9998 0.0203 136.6176 751.6207)" fill="#AEF4F4" width="26.607" height="9.55"/>
	
		<rect x="421.989" y="301.328" transform="matrix(0.0203 -0.9998 0.9998 0.0203 120.4323 735.1041)" fill="#AEF4F4" width="26.607" height="9.551"/>
	<rect x="430.889" y="309.949" fill="#AEF4F4" width="26.607" height="9.551"/>
	<rect x="430.889" y="291.808" fill="#AEF4F4" width="26.607" height="9.55"/>
	
		<rect x="439.148" y="300.431" transform="matrix(0.0203 0.9998 -0.9998 0.0203 748.3948 -153.3578)" fill="#AEF4F4" width="26.608" height="9.55"/>
	
		<rect x="422.628" y="300.431" transform="matrix(0.0202 0.9998 -0.9998 0.0202 732.2594 -136.8087)" fill="#AEF4F4" width="26.607" height="9.55"/>
	<rect x="271.754" y="20.333" fill="#21A3B9" width="340.875" height="49.098"/>
	<rect x="278.195" y="541.587" fill="#21A3B9" width="332.523" height="49.097"/>
	<rect x="443.553" y="20.333" fill="#167E89" width="169.076" height="49.098"/>
	<rect x="448.726" y="541.587" fill="#167E89" width="161.993" height="49.097"/>
	<polyline fill="#21A3B9" points="271.754,69.432 288.451,78.982 288.451,69.432 	"/>
	<polyline fill="#167E89" points="595.32,78.982 612.629,69.432 595.32,69.432 	"/>
	<polyline fill="#21A3B9" points="278.195,541.587 289.09,532.327 289.09,541.587 	"/>
	<polygon fill="#167E89" points="610.719,541.587 595.961,532.327 595.961,543.897 	"/>
	<rect x="310.07" y="91.95" fill="#AEF4F4" width="275.883" height="9.55"/>
	<rect x="324.809" y="117.477" fill="#AEF4F4" width="240.354" height="9.55"/>
	<rect x="339.246" y="142.484" fill="#AEF4F4" width="216.152" height="9.55"/>
	<rect x="354.246" y="168.467" fill="#AEF4F4" width="181.479" height="9.55"/>
	<rect x="365.387" y="194.733" fill="#AEF4F4" width="155.174" height="9.55"/>
	<rect x="380.664" y="220.923" fill="#AEF4F4" width="127.533" height="9.55"/>
	<rect x="398.346" y="244.845" fill="#AEF4F4" width="96.041" height="9.55"/>
	<rect x="411.766" y="267.616" fill="#AEF4F4" width="67.759" height="9.55"/>
	<rect x="306.49" y="510.362" fill="#AEF4F4" width="275.882" height="9.551"/>
	<rect x="321.229" y="484.836" fill="#AEF4F4" width="240.354" height="9.55"/>
	<rect x="335.665" y="459.829" fill="#AEF4F4" width="216.152" height="9.551"/>
	<rect x="350.666" y="433.846" fill="#AEF4F4" width="181.478" height="9.551"/>
	<rect x="361.807" y="407.581" fill="#AEF4F4" width="155.173" height="9.55"/>
	<rect x="377.084" y="381.39" fill="#AEF4F4" width="127.533" height="9.551"/>
	<rect x="394.765" y="357.468" fill="#AEF4F4" width="96.04" height="9.551"/>
	<rect x="408.185" y="334.697" fill="#AEF4F4" width="67.759" height="9.551"/>
</g>
<g id="Layer_2">
</g>
</svg>
