<?xml version="1.0" encoding="utf-8"?>
<!-- Generator: Adobe Illustrator 16.0.0, SVG Export Plug-In . SVG Version: 6.00 Build 0)  -->
<!DOCTYPE svg PUBLIC "-//W3C//DTD SVG 1.1//EN" "http://www.w3.org/Graphics/SVG/1.1/DTD/svg11.dtd">
<svg version="1.1" xmlns="http://www.w3.org/2000/svg" xmlns:xlink="http://www.w3.org/1999/xlink" x="0px" y="0px" width="864px"
	 height="612px" viewBox="0 0 864 612" enable-background="new 0 0 864 612" xml:space="preserve">
<g id="Layer_1">
</g>
<g id="Layer_3">
	<rect x="288.24" y="58.754" fill="#AEF4F4" width="321.388" height="10.002"/>
	<rect x="289.24" y="543.396" fill="#AEF4F4" width="321.388" height="10.002"/>
	<rect x="436.746" y="291.651" fill="#AEF4F4" width="27.865" height="10.002"/>
	<rect x="436.746" y="310.65" fill="#AEF4F4" width="27.865" height="10.002"/>
	
		<rect x="445.397" y="301.621" transform="matrix(0.0202 -0.9998 0.9998 0.0202 143.4814 759.6575)" fill="#AEF4F4" width="27.865" height="10.002"/>
	
		<rect x="428.096" y="301.621" transform="matrix(0.0203 -0.9998 0.9998 0.0203 126.5148 742.3487)" fill="#AEF4F4" width="27.865" height="10.002"/>
	<rect x="437.416" y="310.65" fill="#AEF4F4" width="27.866" height="10.002"/>
	<rect x="437.416" y="291.651" fill="#AEF4F4" width="27.866" height="10.002"/>
	
		<rect x="446.066" y="300.682" transform="matrix(0.0203 0.9998 -0.9998 0.0203 756.2858 -160.4244)" fill="#AEF4F4" width="27.867" height="10.002"/>
	
		<rect x="428.765" y="300.682" transform="matrix(0.0203 0.9998 -0.9998 0.0203 739.3513 -143.1163)" fill="#AEF4F4" width="27.867" height="10.002"/>
	<rect x="270.754" y="7.333" fill="#21A3B9" width="357" height="51.421"/>
	<rect x="277.5" y="553.246" fill="#21A3B9" width="348.254" height="51.42"/>
	<rect x="450.68" y="7.333" fill="#167E89" width="177.074" height="51.421"/>
	<rect x="456.098" y="553.246" fill="#167E89" width="169.656" height="51.42"/>
	<polyline fill="#21A3B9" points="270.754,58.754 288.24,68.756 288.24,58.754 	"/>
	<polyline fill="#167E89" points="609.628,68.756 627.754,58.754 609.628,58.754 	"/>
	<polyline fill="#21A3B9" points="277.5,553.246 288.91,543.549 288.91,553.246 	"/>
	<polygon fill="#167E89" points="625.754,553.246 610.299,543.549 610.299,555.666 	"/>
	<rect x="310.883" y="82.338" fill="#AEF4F4" width="288.934" height="10.002"/>
	<rect x="326.318" y="109.073" fill="#AEF4F4" width="251.725" height="10.002"/>
	<rect x="341.438" y="135.263" fill="#AEF4F4" width="226.378" height="10.002"/>
	<rect x="357.148" y="162.475" fill="#AEF4F4" width="190.063" height="10.002"/>
	<rect x="368.816" y="189.983" fill="#AEF4F4" width="162.514" height="10.002"/>
	<rect x="384.816" y="217.412" fill="#AEF4F4" width="133.566" height="10.002"/>
	<rect x="403.334" y="242.466" fill="#AEF4F4" width="100.584" height="10.002"/>
	<rect x="417.389" y="266.314" fill="#AEF4F4" width="70.965" height="10.002"/>
	<rect x="307.133" y="520.545" fill="#AEF4F4" width="288.934" height="10.002"/>
	<rect x="322.568" y="493.811" fill="#AEF4F4" width="251.725" height="10.002"/>
	<rect x="337.688" y="467.621" fill="#AEF4F4" width="226.378" height="10.002"/>
	<rect x="353.398" y="440.408" fill="#AEF4F4" width="190.063" height="10.002"/>
	<rect x="365.066" y="412.9" fill="#AEF4F4" width="162.514" height="10.002"/>
	<rect x="381.066" y="385.471" fill="#AEF4F4" width="133.566" height="10.002"/>
	<rect x="399.584" y="360.417" fill="#AEF4F4" width="100.584" height="10.002"/>
	<rect x="413.639" y="336.569" fill="#AEF4F4" width="70.965" height="10.002"/>
</g>
<g id="Layer_2">
</g>
</svg>
